<?xml version="1.0" standalone="no"?>
<!DOCTYPE svg PUBLIC "-//W3C//DTD SVG 20010904//EN"
 "http://www.w3.org/TR/2001/REC-SVG-20010904/DTD/svg10.dtd">
<svg version="1.0" xmlns="http://www.w3.org/2000/svg"
 width="130.000000pt" height="124.000000pt" viewBox="0 0 130.000000 124.000000"
 preserveAspectRatio="xMidYMid meet">

<g transform="translate(0.000000,124.000000) scale(0.100000,-0.100000)"
fill="#000000" stroke="none">
<path d="M514 1226 c-127 -31 -228 -133 -268 -270 -11 -37 -15 -41 -53 -48
-57 -9 -94 -30 -133 -74 -44 -51 -60 -93 -60 -162 0 -82 38 -156 104 -199 43
-29 56 -33 117 -33 l69 0 0 -53 c0 -47 -4 -57 -33 -85 -41 -40 -101 -44 -147
-10 -25 18 -34 20 -54 10 -14 -6 -28 -23 -32 -37 -12 -49 55 -88 86 -50 9 10
31 15 73 15 57 0 61 2 103 44 42 41 44 47 44 100 0 43 3 56 15 56 12 0 15 -20
15 -118 l0 -118 -33 -32 c-20 -19 -43 -32 -58 -32 -51 0 -77 -61 -41 -93 23
-21 41 -21 71 -1 16 12 22 23 18 40 -3 17 7 34 40 65 l43 43 0 123 0 123 65 0
65 0 0 -34 c0 -18 -7 -39 -15 -46 -21 -18 -19 -54 5 -75 16 -15 26 -17 48 -9
22 8 28 16 30 47 2 26 -1 39 -12 43 -10 4 -16 19 -16 40 0 31 3 34 30 34 l30
0 0 -164 c0 -133 -3 -166 -15 -176 -18 -15 -20 -61 -3 -78 15 -15 61 -15 76 0
17 17 15 63 -3 78 -12 10 -15 43 -15 176 l0 164 55 0 55 0 0 -74 c0 -53 -4
-77 -15 -86 -18 -15 -20 -61 -3 -78 15 -15 61 -15 76 0 17 17 15 63 -3 78 -11
9 -15 33 -15 86 l0 74 30 0 29 0 3 -107 3 -108 53 -34 c39 -25 52 -40 52 -58
0 -32 40 -51 75 -35 20 9 25 19 25 46 0 40 -27 61 -65 52 -17 -4 -36 3 -67 27
l-43 33 -3 92 -3 92 31 0 c30 0 30 0 30 -58 0 -79 15 -92 102 -92 46 0 69 -4
78 -15 15 -18 61 -20 78 -3 15 15 15 61 0 76 -17 17 -63 15 -78 -3 -9 -10 -32
-15 -76 -15 l-64 0 0 60 0 60 35 0 c49 0 147 52 184 97 102 123 93 322 -19
433 -60 61 -123 83 -225 79 l-74 -3 -29 40 c-56 77 -127 123 -220 143 -64 13
-82 13 -148 -3z m169 -40 c25 -7 59 -23 76 -35 l31 -22 0 -123 c0 -98 -3 -126
-15 -136 -21 -17 -19 -64 4 -84 26 -24 62 -17 80 16 14 25 14 29 -7 57 -19 26
-22 43 -22 128 l0 98 38 -44 37 -43 45 12 c112 30 230 -30 289 -147 28 -56 27
-63 -11 -63 -37 0 -78 34 -78 63 0 25 -28 57 -48 57 -25 0 -52 -31 -52 -60 0
-33 17 -50 50 -50 15 0 35 -9 45 -20 13 -15 31 -20 66 -20 26 0 51 -4 54 -10
4 -6 -34 -10 -108 -10 -90 0 -117 3 -127 15 -15 18 -61 20 -78 3 -7 -7 -12
-24 -12 -38 0 -14 5 -31 12 -38 17 -17 63 -15 78 3 10 12 37 15 122 15 108 0
109 0 106 -22 -3 -21 -10 -23 -62 -26 -39 -2 -69 -10 -87 -23 -15 -10 -38 -19
-51 -19 -58 0 -76 -78 -23 -102 31 -14 75 12 75 44 0 36 29 58 77 58 23 0 43
-4 43 -10 0 -19 -74 -91 -114 -113 -35 -18 -61 -22 -183 -25 l-143 -4 0 39 c0
21 7 47 15 57 20 26 19 55 -2 78 -22 25 -59 23 -77 -4 -21 -30 -20 -51 4 -73
13 -12 20 -31 20 -57 l0 -38 -60 0 -60 0 0 62 c0 50 4 66 22 85 18 19 20 28
12 50 -13 38 -57 53 -84 28 -24 -21 -26 -57 -5 -75 11 -9 15 -32 15 -81 l0
-69 -200 0 c-226 0 -247 5 -308 75 -41 46 -41 65 -2 65 17 0 30 -5 30 -10 0
-6 11 -15 25 -22 31 -14 75 12 75 44 0 47 -62 77 -90 43 -7 -8 -28 -15 -46
-15 -30 0 -34 3 -34 25 0 24 2 25 74 25 53 0 77 -4 86 -15 15 -18 61 -20 78
-3 15 15 15 61 0 76 -17 17 -63 15 -78 -3 -14 -16 -150 -22 -150 -6 0 4 10 23
23 42 27 41 91 79 133 79 44 0 61 18 79 81 15 55 61 135 90 159 13 11 15 5 15
-41 0 -40 -5 -58 -22 -76 -18 -19 -20 -28 -12 -51 7 -21 17 -28 42 -30 18 -2
40 2 48 9 11 9 14 7 14 -14 0 -13 -7 -30 -15 -37 -22 -19 -19 -67 6 -80 31
-17 62 -8 78 22 14 25 14 29 -7 51 -21 22 -22 32 -22 175 0 95 4 152 10 152 6
0 10 -31 10 -73 0 -49 5 -80 15 -94 10 -14 13 -32 9 -47 -9 -38 11 -66 49 -66
38 0 57 15 57 44 0 24 -28 56 -48 56 -29 0 -41 33 -42 113 l0 77 38 0 c22 0
59 -6 85 -14z m-213 -65 c0 -26 -3 -69 -6 -95 -6 -43 -8 -46 -24 -31 -26 23
-27 142 -3 161 29 21 33 17 33 -35z m-52 -162 c-2 -6 -8 -10 -13 -10 -5 0 -11
4 -13 10 -2 6 4 11 13 11 9 0 15 -5 13 -11z m190 0 c-2 -6 -8 -10 -13 -10 -5
0 -11 4 -13 10 -2 6 4 11 13 11 9 0 15 -5 13 -11z m510 -97 c2 -7 -3 -12 -12
-12 -9 0 -16 7 -16 16 0 17 22 14 28 -4z m-620 -30 c2 -7 -3 -12 -12 -12 -9 0
-16 7 -16 16 0 17 22 14 28 -4z m330 -4 c-6 -18 -28 -21 -28 -4 0 9 7 16 16
16 9 0 14 -5 12 -12z m178 -89 c10 -17 -13 -36 -27 -22 -12 12 -4 33 11 33 5
0 12 -5 16 -11z m-750 -10 c10 -17 -13 -36 -27 -22 -12 12 -4 33 11 33 5 0 12
-5 16 -11z m374 -74 c0 -8 -7 -15 -15 -15 -8 0 -15 7 -15 15 0 8 7 15 15 15 8
0 15 -7 15 -15z m-460 -31 c0 -17 -22 -14 -28 4 -2 7 3 12 12 12 9 0 16 -7 16
-16z m610 -19 c0 -8 -7 -15 -15 -15 -8 0 -15 7 -15 15 0 8 7 15 15 15 8 0 15
-7 15 -15z m290 -41 c0 -16 -16 -19 -25 -4 -8 13 4 32 16 25 5 -4 9 -13 9 -21z
m-508 -249 c0 -5 -5 -11 -11 -13 -6 -2 -11 4 -11 13 0 9 5 15 11 13 6 -2 11
-8 11 -13z m638 -21 c0 -9 -5 -14 -12 -12 -18 6 -21 28 -4 28 9 0 16 -7 16
-16z m-1110 -45 c0 -5 -7 -9 -15 -9 -15 0 -20 12 -9 23 8 8 24 -1 24 -14z
m720 -19 c0 -5 -4 -10 -10 -10 -5 0 -10 5 -10 10 0 6 5 10 10 10 6 0 10 -4 10
-10z m245 -89 c7 -12 -12 -24 -25 -16 -11 7 -4 25 10 25 5 0 11 -4 15 -9z
m-775 -66 c0 -8 -7 -15 -15 -15 -8 0 -15 7 -15 15 0 8 7 15 15 15 8 0 15 -7
15 -15z m380 -24 c0 -6 -4 -13 -10 -16 -5 -3 -10 1 -10 9 0 9 5 16 10 16 6 0
10 -4 10 -9z"/>
</g>
</svg>
